<svg width="119" height="89" viewBox="0 0 119 89" fill="none" xmlns="http://www.w3.org/2000/svg">
<g clip-path="url(#clip0)">
<path d="M118.734 37.1269C118.734 38.7068 117.935 40.0233 116.072 41.0766L71.6131 66.3547C67.6198 68.7245 60.4319 68.4612 55.9062 65.8281L4.52585 36.6003C1.86366 35.0204 0.532562 33.1772 0.798775 31.334V51.8725C0.798775 53.7156 2.12988 55.5588 4.52585 57.1387L55.9062 86.3665C60.6981 88.9997 67.6198 89.263 71.6131 86.8932L116.072 61.6151C117.935 60.5618 118.734 59.2452 118.734 57.6653V37.1269Z" fill="#2B215F"/>
<path d="M64.6912 89C67.3534 89 70.0156 88.4734 71.8791 87.4202L116.338 62.1421C118.201 61.0888 119.266 59.5089 119.266 57.929V37.3906C119.266 37.1273 119 36.864 118.734 36.864C118.467 36.864 118.467 36.864 118.201 37.1273C118.201 37.1273 117.935 37.3906 117.935 37.6539C117.935 38.9705 117.136 40.287 115.539 41.077L71.3466 65.8285C67.3534 67.935 60.6979 67.6716 56.1722 65.3018L4.79184 36.074C2.39587 34.7574 1.06477 33.1776 1.33099 31.3344C1.33099 31.0711 1.33098 31.0711 1.06476 30.8077C1.06476 30.8077 0.798553 30.5444 0.532333 30.5444C0.266113 30.5444 -0.000106812 30.8077 -0.000106812 31.0711V51.6095C-0.000106812 53.716 1.59721 55.5592 4.2594 57.1391L55.6397 86.8935C58.3019 88.2101 61.4965 89 64.6912 89ZM117.37 57.4451C117.37 58.7617 116.522 59.8915 114.925 60.6815L70.0958 85.7633C66.1025 87.8698 60.6979 87.324 56.1722 84.9542L4.79184 55.0179C2.39587 53.7013 1.36381 53.4527 1.63003 51.6095V34.7906C2.42869 35.8438 2.92831 36.3373 4.2594 37.1273L55.6397 66.0918C60.4317 68.7249 67.8858 69.2515 71.8791 66.6184L116.338 41.6036C117.136 41.077 116.837 40.9808 117.37 40.4542V57.4451Z" fill="white"/>
<path d="M55.906 65.8283C60.6979 68.4614 67.6196 68.7247 71.6129 66.3549L116.072 41.0768C120.065 38.707 119.532 34.7573 115.007 32.1242L63.6263 2.63303C58.8344 -0.000102401 51.9127 -0.263416 47.9194 2.10641L3.46078 27.3845C-0.532516 29.7543 -6.86646e-05 33.704 4.52566 36.3372L55.906 65.8283Z" fill="#2B215F"/>
<path d="M64.6912 68.4613C67.3534 68.4613 70.0156 67.9347 71.8791 66.8814L116.338 41.6033C118.201 40.5501 119.266 38.9702 119.266 37.127C119.266 35.0205 117.669 33.1773 115.007 31.5974L63.8925 2.3696C59.1006 -0.263535 51.6464 -0.790162 47.6531 1.84297L3.19453 27.1211C1.33099 28.1743 0.266106 29.7542 0.266106 31.5974C0.266106 33.7039 1.86343 35.5471 4.52563 37.127L55.6397 66.0915C58.3019 67.6714 61.4965 68.4613 64.6912 68.4613ZM54.6095 1.6178C57.5379 1.6178 61.1793 2.7285 63.5752 4.04507L114.109 33.1723C116.505 34.4889 117.37 35.3746 117.37 37.2178C117.37 38.5344 116.604 39.6642 115.007 40.4542L70.9109 64.7269C66.9176 66.8334 61.5804 66.2876 57.0547 63.9178L4.8903 35.5996C2.49433 34.2831 1.63003 33.3974 1.63003 31.5542C1.63003 30.2376 2.47792 29.1077 4.07523 28.3178L48.0889 3.23598C49.6862 2.18273 52.2135 1.6178 54.6095 1.6178Z" fill="white"/>
<path d="M7.18787 48.9758C7.18787 49.5025 7.45409 50.0291 7.98653 50.2924L50.8478 74.7806C51.114 75.0439 51.6465 74.7806 51.6465 74.254C51.6465 73.7273 51.3803 73.2007 50.8478 72.9374L7.98653 48.4492C7.45409 48.4492 7.18787 48.4492 7.18787 48.9758Z" fill="#2B215F"/>
<path d="M50.8477 75.5709C51.1139 75.5709 51.1139 75.5709 51.3802 75.5709C51.6464 75.3076 51.9126 75.0443 51.9126 74.5176C51.9126 73.7277 51.3802 72.9377 50.8477 72.6744L7.98642 48.1863C7.7202 47.9229 7.18776 47.9229 6.92154 48.1863C6.65532 48.4496 6.3891 48.7129 6.3891 49.2395C6.3891 50.0295 6.92154 50.8194 7.45398 51.0827L50.3153 75.5709C50.3153 75.3076 50.5815 75.5709 50.8477 75.5709ZM7.7202 49.2395L50.3153 73.4644C50.5815 73.4644 50.8477 73.991 50.8477 74.2543L8.25264 50.0295C7.98642 49.7661 7.7202 49.5028 7.7202 49.2395Z" fill="white"/>
</g>
<defs>
<clipPath id="clip0">
<rect width="119" height="89" fill="white"/>
</clipPath>
</defs>
</svg>
