<svg width="113" height="113" viewBox="0 0 113 113" fill="none" xmlns="http://www.w3.org/2000/svg">
<g clip-path="url(#clip0)">
<path d="M37.1169 1.21477C40.3733 -0.475814 44.2811 -0.403865 47.4806 1.44342L75.1321 17.408C78.5751 19.3956 80.6958 23.0692 80.6958 27.0448V107.22C80.6958 108.602 79.9551 109.877 78.7552 110.562L75.4799 112.432C74.4272 113.106 73.0295 113.234 71.7915 112.522L40.5225 94.502C37.0754 92.5155 34.9513 88.8396 34.9513 84.8613V4.48559C34.9515 2.95259 35.882 1.74203 37.1169 1.21477Z" fill="#2B215F" stroke="white" stroke-width="0.852273"/>
<path d="M77.1144 109.444V29.0993C77.1144 25.1238 74.9935 21.4504 71.5507 19.4627L40.2806 1.40877C39.2398 0.807795 38.0849 0.801395 37.1169 1.21477C40.3733 -0.475814 44.2811 -0.403865 47.4806 1.44342L75.1321 17.408C78.5751 19.3956 80.6958 23.0692 80.6958 27.0448V107.22C80.6958 108.602 79.9551 109.877 78.7552 110.562L75.4799 112.432C76.4409 111.817 77.1144 110.747 77.1144 109.444Z" fill="#2B215F" stroke="white" stroke-width="0.852273"/>
<path d="M38.4289 11.4356C38.4289 10.03 39.9486 9.15002 41.1676 9.84964L72.9166 28.0707C73.4846 28.3967 73.835 29.0017 73.835 29.6566V97.4524C73.835 98.8592 72.3128 99.739 71.0937 99.0369L39.3448 80.7497C38.7781 80.4233 38.4289 79.8192 38.4289 79.1652V11.4356Z" fill="#2B215F" stroke="white" stroke-width="0.852273"/>
<path d="M54.9067 92.7432L52.959 91.6209C51.5715 90.8213 49.8387 91.8229 49.8387 93.4243V94.197C49.8387 95.8326 50.7114 97.3438 52.1281 98.1612L54.0771 99.2862C55.4647 100.087 57.1987 99.0856 57.1987 97.4837V96.7095C57.1985 95.0725 56.3247 93.5605 54.9067 92.7432Z" fill="#2B215F" stroke="white" stroke-width="0.852273"/>
</g>
<defs>
<clipPath id="clip0">
<rect width="113" height="113" transform="matrix(-1 0 0 1 113 0)" fill="white"/>
</clipPath>
</defs>
</svg>
