<svg width="127" height="77" viewBox="0 0 127 77" fill="none" xmlns="http://www.w3.org/2000/svg">
<g clip-path="url(#clip0)">
<path d="M95.0168 21.6386C95.0168 20.5146 95.8677 18.8284 96.7186 18.5474C97.5695 17.9854 98.4204 18.5474 98.4204 19.9525C98.4204 21.0766 97.5695 22.7627 96.7186 23.0438C95.8677 23.3248 95.0168 22.7627 95.0168 21.6386Z" fill="#2B215F"/>
<path d="M96.1513 23.6059C95.8676 23.6059 95.584 23.6059 95.3004 23.3249C94.7331 23.0438 94.4495 22.2008 94.4495 21.3577C94.4495 19.9526 95.3004 18.2665 96.4349 17.7044C97.0022 17.4234 97.5694 17.4234 98.1367 17.7044C98.704 17.9854 98.9876 18.8285 98.9876 19.6716C98.9876 21.0767 98.1367 22.7628 97.0022 23.3249C96.7185 23.6059 96.4349 23.6059 96.1513 23.6059ZM97.5694 18.8285H97.2858C96.4349 19.3905 95.8676 20.5146 95.8676 21.6387C95.8676 22.2008 96.1513 22.4818 96.1513 22.4818C96.4349 22.4818 96.4349 22.4818 96.7185 22.4818C97.5694 21.9197 98.1367 20.7957 98.1367 19.6716C97.8531 19.1095 97.5694 18.8285 97.5694 18.8285Z" fill="white"/>
<path d="M85.9406 12.0843C86.2242 11.8033 86.7915 11.8033 87.0751 12.0843L97.8531 18.2668C97.5695 17.9858 97.2859 18.2668 96.7186 18.2668C95.8677 18.8288 95.0168 20.2339 95.0168 21.358C95.0168 21.9201 95.3004 22.4821 95.5841 22.7631L84.806 16.5807C84.5224 16.2996 84.2388 16.0186 84.2388 15.1755C84.2388 14.0515 85.0897 12.6463 85.9406 12.0843Z" fill="#2B215F"/>
<path d="M95.5841 23.606H95.3004L84.5224 17.4235C83.9551 17.1425 83.6715 16.2994 83.6715 15.4563C83.6715 14.0512 84.5224 12.3651 85.6569 11.8031C86.2242 11.522 86.7915 11.522 87.3587 11.8031L98.1367 17.9855C98.4204 18.2666 98.4204 18.5476 98.4204 18.8286C98.1367 19.1096 97.8531 19.1096 97.5695 19.1096C97.2858 19.1096 97.2858 19.1096 97.0022 19.1096C96.1513 19.6717 95.5841 20.7958 95.5841 21.9198C95.5841 22.4819 95.8677 22.7629 95.8677 22.7629C96.1513 22.4819 96.435 22.7629 96.1513 23.0439C96.1513 23.325 95.8677 23.3249 95.5841 23.606C95.8677 23.606 95.5841 23.606 95.5841 23.606ZM86.5078 12.6461H86.2242C85.3733 13.2082 84.806 14.3322 84.806 15.4563C84.806 16.0184 85.0897 16.2994 85.0897 16.2994L94.4495 21.6388C94.4495 20.2337 95.3004 18.8286 96.1513 17.9855L86.5078 12.6461C86.7915 12.6461 86.5078 12.6461 86.5078 12.6461Z" fill="white"/>
<path d="M95.3003 21.3576C95.3003 22.4817 95.8676 22.7627 96.7185 22.4817C97.5694 21.9197 98.1366 20.7956 98.1366 19.9525C98.1366 18.8284 97.5694 18.5474 96.7185 18.8284C95.8676 19.1094 95.3003 20.5145 95.3003 21.3576Z" fill="#2B215F"/>
<path d="M96.1513 23.3248C95.8677 23.3248 95.5841 23.3248 95.5841 23.0438C95.0168 22.7628 94.7332 22.2007 94.7332 21.3577C94.7332 20.2336 95.584 18.8285 96.4349 18.2664C97.0022 17.9854 97.5695 17.9854 97.8531 18.2664C98.4204 18.5475 98.704 19.1095 98.704 19.9526C98.704 21.0766 97.8531 22.4818 97.0022 23.0438C96.7186 23.0438 96.435 23.3248 96.1513 23.3248ZM97.2858 19.1095C96.4349 19.6715 95.8677 20.5146 95.8677 21.3577C95.8677 21.6387 95.8677 21.9197 96.1513 21.9197H96.4349C97.0022 21.6387 97.5695 20.5146 97.5695 19.6715C97.5695 19.3905 97.5695 19.1095 97.2858 19.1095Z" fill="white"/>
<path d="M119.976 36.2521L58.7118 1.12439C57.2937 0.28132 54.741 0.28132 53.0392 1.40541L1.98536 30.6317C0.283569 31.4748 0.283569 33.1609 1.70173 33.7229L62.9663 68.8507C64.3845 69.6937 66.9372 69.6937 68.639 68.5696L119.693 39.3434C121.395 38.5003 121.395 37.0952 119.976 36.2521Z" fill="#2B215F"/>
<path d="M65.2354 69.9762C64.1009 69.9762 63.25 69.6952 62.3991 69.4142L1.13453 34.5675C0.567265 34.0054 0 33.1624 0 32.6003C0 31.7573 0.567265 30.9142 1.70179 30.3522L53.0393 0.844861C55.0247 -0.279227 57.5774 -0.279227 59.2792 0.563839L120.544 35.6916C121.395 36.2536 121.678 36.8157 121.678 37.6587C121.678 38.5018 121.111 39.3449 119.976 39.9069L68.639 69.1332C67.7881 69.6952 66.37 69.9762 65.2354 69.9762ZM56.4428 1.12588C55.3083 1.12588 54.4574 1.4069 53.6065 1.96895L2.26906 31.1952C1.70179 31.4762 1.13453 32.0383 1.13453 32.6003C1.13453 32.8814 1.41816 33.4434 1.70179 33.4434L62.9664 68.5711C64.1009 69.4142 66.6536 69.1332 68.0718 68.2901L119.409 39.0638C119.976 38.7828 120.544 38.2208 120.544 37.6587C120.544 37.3777 120.26 36.8157 119.976 36.8157L58.4283 1.68793C57.861 1.4069 57.2937 1.12588 56.4428 1.12588Z" fill="white"/>
<path d="M119.126 38.7811C120.544 37.938 120.544 36.8139 119.409 36.2519L58.4283 1.12413C57.2937 0.562088 55.3083 0.562088 53.8901 1.40515L46.2321 5.62048L111.751 42.9964L119.126 38.7811Z" fill="#2B215F"/>
<path d="M111.751 43.5585H111.467L45.9484 6.18256C45.6648 6.18256 45.6648 5.90154 45.6648 5.62051C45.6648 5.33949 45.6648 5.33949 45.9484 5.05847L53.3229 0.843142C55.0247 7.63088e-05 57.2937 7.63088e-05 58.7119 0.56212L119.976 35.6899C120.544 35.9709 121.111 36.8139 121.111 37.376C121.111 38.2191 120.544 38.7811 119.693 39.3431L112.318 43.5585C112.035 43.5585 111.751 43.5585 111.751 43.5585ZM47.3666 5.62051L111.751 42.4344L118.842 38.2191C119.409 37.938 119.693 37.657 119.693 37.376C119.693 37.095 119.409 36.8139 119.126 36.8139L57.861 1.68621C57.0101 1.12416 55.0247 1.12416 53.8901 1.96723L47.3666 5.62051Z" fill="white"/>
<path d="M111.751 42.997L119.126 38.7817C119.976 38.5006 120.26 37.9386 120.26 37.3766C120.26 37.3766 120.26 37.3766 120.26 37.6576C120.26 38.2196 119.976 38.7817 119.126 39.0627L111.751 43.278L46.2321 5.90212V5.62109L111.751 42.997Z" fill="#2B215F"/>
<path d="M111.751 43.8396H111.467L45.9484 6.4637C45.6648 6.4637 45.6648 6.18268 45.6648 5.90166V5.62064C45.6648 5.33962 45.6648 5.33962 45.9484 5.05859C46.2321 5.05859 46.2321 5.05859 46.5157 5.05859L111.751 42.4345L118.842 38.2192C119.409 37.9382 119.693 37.6571 119.693 37.3761C119.693 37.0951 119.976 36.8141 120.26 36.8141C120.544 36.8141 120.827 36.8141 120.827 37.0951V37.3761V37.6571C120.827 38.5002 120.26 39.0622 119.409 39.6243L112.035 43.8396H111.751Z" fill="white"/>
<path d="M2.55272 30.9131C1.13456 31.7562 1.13456 32.8803 2.26909 33.4423L63.5337 68.5701C64.6682 69.1321 66.6536 69.1321 68.0718 68.2891L70.3408 67.165L4.53815 29.7891L2.55272 30.9131Z" fill="#2B215F"/>
<path d="M65.2354 69.6942C64.3845 69.6942 63.5336 69.4132 62.9664 69.1322L1.70179 34.0044C1.13453 33.7234 0.567261 32.8803 0.567261 32.3183C0.567261 31.4752 1.13453 30.9132 1.98542 30.3511L4.25448 29.2271C4.53811 29.2271 4.53811 29.2271 4.82175 29.2271L70.3408 66.603C70.6244 66.603 70.6245 66.884 70.6245 67.165C70.6245 67.446 70.6244 67.446 70.3408 67.7271L68.0718 68.8512C67.5045 69.4132 66.37 69.6942 65.2354 69.6942ZM2.83632 31.4752C2.26905 31.7562 1.98542 32.0373 1.98542 32.3183C1.98542 32.5993 2.26905 32.8803 2.55269 32.8803L63.8173 68.0081C64.6682 68.5701 66.6536 68.5701 67.7881 67.7271L68.9227 66.884L4.53811 30.3511L2.83632 31.4752Z" fill="white"/>
<path d="M46.232 5.90186L4.53809 29.7887L70.0571 67.1646L111.751 43.2778L46.232 5.90186Z" fill="#2B215F"/>
<path d="M70.0572 67.7267H69.7735L4.25446 30.3508C3.97083 30.3508 3.97083 30.0698 3.97083 29.7887C3.97083 29.5077 3.97083 29.5077 4.25446 29.2267L45.9484 5.33984C46.232 5.33984 46.232 5.33984 46.5157 5.33984L112.035 42.7158C112.318 42.7158 112.318 42.9968 112.318 43.2778C112.318 43.5588 112.318 43.5588 112.035 43.8398L70.3408 67.7267C70.3408 67.7267 70.3408 67.7267 70.0572 67.7267ZM5.95625 29.7887L70.3408 66.6026L110.617 43.2778L46.232 6.46393L5.95625 29.7887Z" fill="white"/>
<path d="M48.5212 28.399C49.6758 28.6081 50.5547 27.3818 49.9857 26.3556C49.4904 25.4624 48.2335 25.3896 47.6385 26.2198C47.0434 27.0499 47.5161 28.2169 48.5212 28.399Z" fill="#2B215F" stroke="white"/>
<path d="M50.4941 28.2806C50.6279 28.0821 50.9395 28.0757 51.0555 28.285L51.0814 28.3317C51.2122 28.5677 51.0101 28.8497 50.7446 28.8016L50.6873 28.7912C50.461 28.7502 50.3656 28.4712 50.4941 28.2806Z" fill="#2B215F" stroke="white"/>
<path d="M14.9102 5.76778C14.5905 5.5777 14.4162 5.17367 14.4718 4.61033C14.5756 3.55705 15.4388 2.3528 16.3999 1.92061C16.8788 1.70536 17.2914 1.72283 17.572 1.92452C17.5711 1.92387 17.5703 1.92309 17.5694 1.9223L48.883 24.2325C49.1673 24.4351 49.3173 24.8261 49.265 25.356C49.1611 26.4097 48.2979 27.614 47.3372 28.0459C46.8597 28.2606 46.448 28.2442 46.1673 28.0442L14.8537 5.73415C14.8716 5.74679 14.8914 5.75657 14.9102 5.76778Z" fill="#2B215F" stroke="white"/>
<path d="M14.9011 5.73395L46.2148 28.044C46.4956 28.244 46.9072 28.2603 47.3846 28.0458C48.3454 27.614 49.2084 26.4098 49.3125 25.356C49.3647 24.8259 49.2148 24.4349 48.9305 24.2324L17.6167 1.92236C17.9011 2.12496 18.051 2.51595 17.9987 3.04592C17.8948 4.09959 17.0316 5.30385 16.0709 5.73577C15.5936 5.95023 15.1819 5.93394 14.9011 5.73395Z" fill="#2B215F" stroke="white"/>
<path d="M14.5192 4.6104C14.4153 5.66408 15.1101 6.1681 16.0712 5.73591C17.0319 5.30412 17.895 4.09986 17.999 3.04606C18.1028 1.99278 17.4082 1.48889 16.4474 1.92068C15.4862 2.35274 14.6231 3.55686 14.5192 4.6104Z" fill="#2B215F" stroke="white"/>
<path d="M14.134 4.79788C13.8604 4.63531 13.7113 4.28969 13.7586 3.80783C13.8474 2.90669 14.586 1.87661 15.4078 1.50727C15.8175 1.32305 16.1704 1.33791 16.4108 1.51053C16.41 1.51001 16.4095 1.50935 16.4086 1.5087L17.28 2.12967C17.5231 2.30293 17.6513 2.63721 17.6067 3.09065C17.5179 3.99179 16.7794 5.02212 15.9575 5.3916C15.5492 5.57503 15.197 5.56108 14.9569 5.39016L14.0855 4.7692C14.1009 4.77989 14.1179 4.78836 14.134 4.79788Z" fill="#2B215F" stroke="white"/>
<path d="M14.0857 4.76929L14.9571 5.39025C15.1972 5.5613 15.5494 5.57538 15.9577 5.39168C16.7796 5.02221 17.518 3.992 17.6069 3.09073C17.6516 2.63743 17.5234 2.30302 17.2802 2.12976L16.4088 1.50879C16.6519 1.68205 16.7801 2.01633 16.7355 2.46977C16.6467 3.37091 15.9082 4.40124 15.0863 4.77072C14.6778 4.95441 14.3257 4.94033 14.0857 4.76929Z" fill="#2B215F" stroke="white"/>
<path d="M13.7589 3.80801C13.6701 4.70915 14.2645 5.14029 15.0864 4.77069C15.9083 4.40121 16.6467 3.371 16.7356 2.46974C16.8244 1.5686 16.23 1.13785 15.4081 1.50732C14.586 1.87693 13.8477 2.90688 13.7589 3.80801Z" fill="#2B215F" stroke="white"/>
</g>
<defs>
<clipPath id="clip0">
<rect width="126.5" height="77" fill="white"/>
</clipPath>
</defs>
</svg>
