<svg width="82" height="109" viewBox="0 0 82 109" fill="none" xmlns="http://www.w3.org/2000/svg">
<path d="M53.4937 88.4108L27.4067 73.2509L29.7266 71.2725L55.8133 86.4327L53.4937 88.4108Z" fill="#77767E"/>
<path d="M72.8926 36.1747L13.9006 2.11562C11.64 0.810537 9.59194 0.689529 8.11313 1.5489L3.51364 4.22177C3.51829 4.21921 3.52317 4.21689 3.52781 4.21434C2.05945 5.05954 1.14806 6.86677 1.14086 9.43884L1.00126 58.6821C0.986632 63.8446 4.61642 70.1326 9.10883 72.7263L68.1006 106.786C70.4262 108.128 72.5252 108.215 74.0126 107.273C73.9708 107.299 73.9304 107.327 73.8878 107.352L78.4873 104.68C79.9478 103.831 80.8534 102.026 80.8606 99.4612L81.0002 50.2178C81.0146 45.0567 77.3852 38.7686 72.8926 36.1747Z" fill="white"/>
<path d="M3.51294 4.22268L8.11219 1.55004C9.59123 0.690443 11.6391 0.811451 13.8997 2.11676L9.30044 4.78917C7.03984 3.48386 4.99175 3.36308 3.51294 4.22268Z" fill="#2B215F" stroke="white"/>
<path d="M78.4867 104.68L73.8872 107.353C75.3477 106.504 76.2533 104.699 76.2605 102.135L80.8599 99.4619C80.8527 102.027 79.9472 103.831 78.4867 104.68Z" fill="#2B215F" stroke="white"/>
<path d="M76.3998 52.8911L80.9991 50.2183L80.8595 99.462L76.2603 102.135L76.3998 52.8911Z" fill="#2B215F" stroke="white"/>
<path d="M9.30029 4.78908L13.8998 2.11621L72.8917 36.1753L68.2923 38.8482L9.30029 4.78908Z" fill="#2B215F" stroke="white"/>
<path d="M68.2925 38.8479L72.892 36.1753C77.3846 38.7692 81.0142 45.0572 80.9995 50.2181L76.4003 52.8907C76.4147 47.7296 72.7851 41.4416 68.2925 38.8479Z" fill="#2B215F" stroke="white"/>
<path d="M68.2924 38.8481C72.785 41.442 76.4146 47.7301 76.3999 52.8909L76.2603 102.134C76.2457 107.297 72.5925 109.38 68.0998 106.786L9.10761 72.727C4.61497 70.1331 0.985412 63.8451 1.00004 58.6828L1.13963 9.43936C1.15427 4.2785 4.80751 2.19511 9.30016 4.78901L68.2924 38.8481Z" fill="#2B215F" stroke="white"/>
<path d="M68.6388 98.7999C67.3625 98.0631 66.3245 98.6545 66.3203 100.121C66.3161 101.587 67.3474 103.374 68.6237 104.111C69.8999 104.847 70.9379 104.256 70.9421 102.789C70.9463 101.323 69.915 99.5368 68.6388 98.7999Z" fill="#2B215F" stroke="white"/>
<path d="M72.0041 47.3345L5.39624 8.87842V59.5921L72.0041 98.0482V47.3345Z" fill="#C3DFF7"/>
<path d="M72.0041 48.3902C72.0041 47.7369 71.6556 47.1333 71.0898 46.8066L8.1391 10.462C6.92005 9.75819 5.39624 10.638 5.39624 12.0456V58.5364C5.39624 59.1897 5.74476 59.7933 6.31053 60.12L69.2612 96.4646C70.4803 97.1684 72.0041 96.2886 72.0041 94.881V48.3902Z" fill="#2B215F" stroke="white"/>
</svg>
