<svg width="31" height="25" viewBox="0 0 31 25" fill="none" xmlns="http://www.w3.org/2000/svg">
<g clip-path="url(#clip0_68_216)">
<path d="M27.916 5.29004V19.29C27.916 20.0857 27.5999 20.8487 27.0373 21.4113C26.4747 21.9739 25.7117 22.29 24.916 22.29H4.91602C4.12037 22.29 3.3573 21.9739 2.7947 21.4113C2.23209 20.8487 1.91602 20.0857 1.91602 19.29V5.29004M27.916 5.29004C27.916 4.49439 27.5999 3.73133 27.0373 3.16872C26.4747 2.60611 25.7117 2.29004 24.916 2.29004H4.91602C4.12037 2.29004 3.3573 2.60611 2.7947 3.16872C2.23209 3.73133 1.91602 4.49439 1.91602 5.29004M27.916 5.29004V5.61404C27.9161 6.12623 27.785 6.62991 27.5353 7.0771C27.2855 7.52429 26.9255 7.90009 26.4893 8.16871L16.4893 14.322C16.0163 14.6134 15.4716 14.7677 14.916 14.7677C14.3604 14.7677 13.8157 14.6134 13.3427 14.322L3.34268 8.17004C2.90658 7.90142 2.54651 7.52562 2.29677 7.07844C2.04704 6.63125 1.91596 6.12757 1.91602 5.61537V5.29004" stroke="#FFFFFF" stroke-width="2" stroke-linecap="round" stroke-linejoin="round"/>
</g>
<defs>
<clipPath id="clip0_68_216">
<rect width="30" height="24" fill="white" transform="translate(0.25 0.290039)"/>
</clipPath>
</defs>
</svg>
