<svg width="20" height="20" viewBox="0 0 20 20" fill="none" xmlns="http://www.w3.org/2000/svg">
<path d="M10 6.74998C8.20507 6.74998 6.75 8.20506 6.75 9.99998C6.75 11.7949 8.20507 13.25 10 13.25C11.7949 13.25 13.25 11.7949 13.25 9.99998C13.25 8.20506 11.7949 6.74998 10 6.74998Z" fill="white"/>
<path fill-rule="evenodd" clip-rule="evenodd" d="M4.76954 1.08145C8.21766 0.696075 11.7824 0.696075 15.2305 1.08145C17.1289 1.29363 18.6601 2.78941 18.8829 4.69446C19.2952 8.21946 19.2952 11.7805 18.8829 15.3055C18.6601 17.2106 17.1289 18.7063 15.2305 18.9185C11.7824 19.3039 8.21766 19.3039 4.76954 18.9185C2.87114 18.7063 1.33995 17.2106 1.11713 15.3055C0.704852 11.7805 0.704852 8.21946 1.11713 4.69446C1.33995 2.7894 2.87114 1.29363 4.76954 1.08145ZM15 3.99998C14.4477 3.99998 14 4.4477 14 4.99998C14 5.55227 14.4477 5.99998 15 5.99998C15.5523 5.99998 16 5.55227 16 4.99998C16 4.4477 15.5523 3.99998 15 3.99998ZM5.25 9.99998C5.25 7.37663 7.37665 5.24998 10 5.24998C12.6234 5.24998 14.75 7.37663 14.75 9.99998C14.75 12.6233 12.6234 14.75 10 14.75C7.37665 14.75 5.25 12.6233 5.25 9.99998Z" fill="white"/>
</svg>
