<svg width="15" height="15" viewBox="0 0 15 15" fill="none" xmlns="http://www.w3.org/2000/svg">
<g clip-path="url(#clip0_68_233)">
<path d="M12.7792 12.7825H10.5583V9.30167C10.5583 8.47167 10.5417 7.40333 9.4 7.40333C8.2425 7.40333 8.06583 8.30667 8.06583 9.24083V12.7825H5.84417V5.625H7.9775V6.6H8.00667C8.305 6.03833 9.03 5.44417 10.1133 5.44417C12.3633 5.44417 12.78 6.92583 12.78 8.85333V12.7825H12.7792ZM3.33583 4.64583C3.1663 4.64605 2.99838 4.61281 2.84172 4.54801C2.68506 4.4832 2.54272 4.38812 2.42288 4.2682C2.30304 4.14828 2.20804 4.00588 2.14334 3.84918C2.07864 3.69247 2.0455 3.52454 2.04583 3.355C2.046 3.09986 2.12182 2.8505 2.2637 2.63846C2.40558 2.42641 2.60716 2.26119 2.84294 2.16371C3.07872 2.06623 3.33811 2.04085 3.58832 2.09078C3.83852 2.14072 4.0683 2.26373 4.24859 2.44426C4.42888 2.62478 4.5516 2.85472 4.60121 3.10498C4.65082 3.35525 4.62511 3.61461 4.52732 3.85026C4.42953 4.08592 4.26406 4.28728 4.05183 4.42889C3.83959 4.5705 3.59097 4.646 3.33583 4.64583ZM4.44917 12.7825H2.22167V5.625H4.45V12.7825H4.44917ZM13.8917 0H1.1075C0.494167 0 0 0.483333 0 1.08083V13.9192C0 14.5167 0.495 15 1.10667 15H13.8883C14.5 15 15 14.5167 15 13.9192V1.08083C15 0.483333 14.5 0 13.8883 0H13.8917Z" fill="white"/>
</g>
<defs>
<clipPath id="clip0_68_233">
<rect width="15" height="15" fill="white"/>
</clipPath>
</defs>
</svg>
