<svg width="30" height="24" viewBox="0 0 30 24" fill="none" xmlns="http://www.w3.org/2000/svg">
<g clip-path="url(#clip0_245_3)">
<path d="M27.666 5V19C27.666 19.7957 27.3499 20.5587 26.7873 21.1213C26.2247 21.6839 25.4617 22 24.666 22H4.66602C3.87037 22 3.1073 21.6839 2.5447 21.1213C1.98209 20.5587 1.66602 19.7957 1.66602 19V5M27.666 5C27.666 4.20435 27.3499 3.44129 26.7873 2.87868C26.2247 2.31607 25.4617 2 24.666 2H4.66602C3.87037 2 3.1073 2.31607 2.5447 2.87868C1.98209 3.44129 1.66602 4.20435 1.66602 5M27.666 5V5.324C27.6661 5.83619 27.535 6.33987 27.2853 6.78706C27.0355 7.23425 26.6755 7.61005 26.2393 7.87867L16.2393 14.032C15.7663 14.3234 15.2216 14.4777 14.666 14.4777C14.1104 14.4777 13.5657 14.3234 13.0927 14.032L3.09268 7.88C2.65658 7.61138 2.29651 7.23558 2.04677 6.7884C1.79704 6.34121 1.66596 5.83753 1.66602 5.32533V5" stroke="white" stroke-width="1.5" stroke-linecap="round" stroke-linejoin="round"/>
</g>
<defs>
<clipPath id="clip0_245_3">
<rect width="30" height="24" fill="white"/>
</clipPath>
</defs>
</svg>
