<svg width="20" height="15" viewBox="0 0 20 15" fill="none" xmlns="http://www.w3.org/2000/svg">
<g clip-path="url(#clip0_68_239)">
<path d="M16.8275 3.98059C16.835 4.13247 16.8378 4.28622 16.8378 4.43809C16.8378 9.11622 13.2781 14.5087 6.76906 14.5087C4.76937 14.5087 2.91031 13.9228 1.34375 12.9178C2.27035 13.0298 3.20995 12.9582 4.10885 12.7069C5.00774 12.4556 5.84831 12.0297 6.5825 11.4534C5.84414 11.4394 5.1286 11.1951 4.53592 10.7545C3.94323 10.314 3.50304 9.69922 3.27688 8.99621C3.80756 9.09545 4.35373 9.07463 4.87531 8.93528C4.07432 8.77286 3.35412 8.3385 2.83676 7.70581C2.3194 7.07311 2.0367 6.28101 2.03656 5.46372V5.41965C2.52781 5.6934 3.07719 5.84528 3.63969 5.86309C2.88957 5.36301 2.35857 4.59551 2.15508 3.71725C1.95158 2.83899 2.09093 1.91617 2.54469 1.13715C3.43324 2.23071 4.54189 3.12512 5.79863 3.7623C7.05538 4.39947 8.4321 4.76515 9.83938 4.83559C9.71765 4.31625 9.71496 3.7761 9.8315 3.25558C9.94804 2.73505 10.1808 2.24762 10.5124 1.82977C10.8439 1.41191 11.2657 1.07446 11.7461 0.842659C12.2265 0.610858 12.7531 0.490713 13.2866 0.491216C13.7707 0.490426 14.2499 0.589128 14.6944 0.781199C15.1388 0.97327 15.5391 1.25461 15.8703 1.60778C16.6626 1.45093 17.4225 1.16055 18.1175 0.749028C17.8532 1.56859 17.3001 2.26424 16.5613 2.70653C17.2627 2.62337 17.9478 2.43566 18.5938 2.14965C18.1192 2.86069 17.521 3.48082 16.8275 3.98059Z" fill="white"/>
</g>
<defs>
<clipPath id="clip0_68_239">
<rect width="18.75" height="15" fill="white" transform="translate(0.59375)"/>
</clipPath>
</defs>
</svg>
