<svg width="24" height="24" viewBox="0 0 24 24" fill="none" xmlns="http://www.w3.org/2000/svg">
<path d="M15.6802 3.96098C16.1602 4.67098 16.4402 5.52098 16.4402 6.44098C16.4302 8.84098 14.5402 10.791 12.1602 10.871C12.0602 10.861 11.9402 10.861 11.8302 10.871C9.6202 10.801 7.8302 9.11098 7.5902 6.95098C7.3002 4.38098 9.4102 2.00098 11.9902 2.00098" stroke="#292D32" stroke-width="1.5" stroke-linecap="round" stroke-linejoin="round"/>
<path d="M6.9898 14.561C4.5698 16.181 4.5698 18.821 6.9898 20.431C9.7398 22.271 14.2498 22.271 16.9998 20.431C19.4198 18.811 19.4198 16.171 16.9998 14.561C14.2698 12.731 9.7598 12.731 6.9898 14.561Z" stroke="#292D32" stroke-width="1.5" stroke-linecap="round" stroke-linejoin="round"/>
</svg>
